<?xml version="1.0" encoding="UTF-8" standalone="no"?>
<!-- Created with Inkscape (http://www.inkscape.org/) -->

<svg
   xmlns:dc="http://purl.org/dc/elements/1.1/"
   xmlns:cc="http://creativecommons.org/ns#"
   xmlns:rdf="http://www.w3.org/1999/02/22-rdf-syntax-ns#"
   xmlns:svg="http://www.w3.org/2000/svg"
   xmlns="http://www.w3.org/2000/svg"
   xmlns:sodipodi="http://sodipodi.sourceforge.net/DTD/sodipodi-0.dtd"
   xmlns:inkscape="http://www.inkscape.org/namespaces/inkscape"
   width="108.54935mm"
   height="102.2527mm"
   version="1.1"
   viewBox="0 0 108.54935 102.2527"
   id="svg20629"
   inkscape:version="0.91 r13725"
   sodipodi:docname="sad-cat.svg">
  <metadata
     id="metadata33674">
    <rdf:RDF>
      <cc:Work
         rdf:about="">
        <dc:format>image/svg+xml</dc:format>
        <dc:type
           rdf:resource="http://purl.org/dc/dcmitype/StillImage" />
        <dc:title></dc:title>
        <cc:license
           rdf:resource="http://creativecommons.org/publicdomain/zero/1.0/" />
        <dc:creator>
          <cc:Agent>
            <dc:title>j4p4n</dc:title>
          </cc:Agent>
        </dc:creator>
      </cc:Work>
      <cc:License
         rdf:about="http://creativecommons.org/publicdomain/zero/1.0/">
        <cc:permits
           rdf:resource="http://creativecommons.org/ns#Reproduction" />
        <cc:permits
           rdf:resource="http://creativecommons.org/ns#Distribution" />
        <cc:permits
           rdf:resource="http://creativecommons.org/ns#DerivativeWorks" />
      </cc:License>
    </rdf:RDF>
  </metadata>
  <sodipodi:namedview
     pagecolor="#ffffff"
     bordercolor="#666666"
     borderopacity="1"
     objecttolerance="10"
     gridtolerance="10"
     guidetolerance="10"
     inkscape:pageopacity="0"
     inkscape:pageshadow="2"
     inkscape:window-width="1916"
     inkscape:window-height="1035"
     id="namedview33672"
     showgrid="false"
     fit-margin-top="0"
     fit-margin-left="0"
     fit-margin-right="0"
     fit-margin-bottom="0"
     inkscape:zoom="1.497347"
     inkscape:cx="207.71892"
     inkscape:cy="181.51139"
     inkscape:window-x="4"
     inkscape:window-y="1"
     inkscape:window-maximized="1"
     inkscape:current-layer="g52083"
     showguides="true"
     inkscape:guide-bbox="true" />
  <defs
     id="defs20631">
    <clipPath
       id="clipPath592001">
      <path
         d="M 0,792 612,792 612,0 0,0 Z"
         id="path21411"
         inkscape:connector-curvature="0" />
    </clipPath>
    <clipPath
       id="clipPath592805">
      <path
         d="m 352.98,363.14 45.463,0 0,-16.845 -45.463,0 z"
         id="path21512"
         inkscape:connector-curvature="0" />
    </clipPath>
    <clipPath
       id="clipPath592833">
      <path
         d="m 320.47,357.81 28.077,0 0,-28.202 -28.077,0 z"
         id="path21515"
         inkscape:connector-curvature="0" />
    </clipPath>
    <clipPath
       id="clipPath592857">
      <path
         d="m 378.44,340.3 21.725,0 0,-11.677 -21.725,0 z"
         id="path21518"
         inkscape:connector-curvature="0" />
    </clipPath>
    <clipPath
       id="clipPath592873">
      <path
         d="m 378.44,345.2 8.313,0 0,-15.937 -8.313,0 z"
         id="path21521"
         inkscape:connector-curvature="0" />
    </clipPath>
    <clipPath
       id="clipPath592897">
      <path
         d="m 352.35,340.3 21.726,0 0,-11.677 -21.726,0 z"
         id="path21524"
         inkscape:connector-curvature="0" />
    </clipPath>
    <clipPath
       id="clipPath592913">
      <path
         d="m 365.76,345.2 8.314,0 0,-15.937 -8.314,0 z"
         id="path21527"
         inkscape:connector-curvature="0" />
    </clipPath>
    <clipPath
       id="clipPath592941">
      <path
         d="m 330.67,325.69 91.372,0 0,-12.175 -91.372,0 z"
         id="path21530"
         inkscape:connector-curvature="0" />
    </clipPath>
    <clipPath
       id="clipPath592957">
      <path
         d="m 409.27,334.43 13.069,0 0,-7.647 -13.069,0 z"
         id="path21533"
         inkscape:connector-curvature="0" />
    </clipPath>
    <clipPath
       id="clipPath592973">
      <path
         d="m 397.59,337.22 15.148,0 0,-7.239 -15.148,0 z"
         id="path21536"
         inkscape:connector-curvature="0" />
    </clipPath>
    <clipPath
       id="clipPath592997">
      <path
         d="m 330.08,334.43 13.068,0 0,-7.647 -13.068,0 z"
         id="path21539"
         inkscape:connector-curvature="0" />
    </clipPath>
    <clipPath
       id="clipPath593013">
      <path
         d="m 340.02,337.18 14.802,0 0,-7.196 -14.802,0 z"
         id="path21542"
         inkscape:connector-curvature="0" />
    </clipPath>
    <clipPath
       id="clipPath593073">
      <path
         d="m 343.17,364.82 63.427,0 0,-16.828 -63.427,0 z"
         id="path21545"
         inkscape:connector-curvature="0" />
    </clipPath>
    <clipPath
       id="clipPath593089">
      <path
         d="m 341.27,408.87 68.276,0 0,-7.733 -68.276,0 z"
         id="path21548"
         inkscape:connector-curvature="0" />
    </clipPath>
    <clipPath
       id="clipPath593093">
      <path
         d="m 341.27,408.87 68.276,0 0,-7.733 -68.276,0 z"
         id="path21551"
         inkscape:connector-curvature="0" />
    </clipPath>
    <clipPath
       id="clipPath593125">
      <path
         d="m 395.23,402.8 6.755,0 0,-9.463 -6.755,0 z"
         id="path21554"
         inkscape:connector-curvature="0" />
    </clipPath>
    <clipPath
       id="clipPath593149">
      <path
         d="m 348.89,403.72 6.755,0 0,-9.463 -6.755,0 z"
         id="path21557"
         inkscape:connector-curvature="0" />
    </clipPath>
    <clipPath
       id="clipPath593205">
      <path
         d="m 371.19,367.74 6.951,0 0,-5.433 -6.951,0 z"
         id="path21560"
         inkscape:connector-curvature="0" />
    </clipPath>
    <clipPath
       id="clipPath593269">
      <path
         d="m 371.21,355.77 7.602,0 0,-3.75 -7.602,0 z"
         id="path21563"
         inkscape:connector-curvature="0" />
    </clipPath>
  </defs>
  <g
     transform="translate(2.7991667,-149.42638)"
     id="g23596">
    <g
       id="g34216">
      <g
         id="g27646"
         clip-path="url(#clipPath592001)"
         transform="matrix(1.05834,0,0,-1.05834,-341.49301,582.80452)">
        <g
           id="g28390"
           transform="matrix(1,0,0,-1,378.71,358.20621)" />
        <g
           id="g28400"
           transform="translate(371.18,364.59)" />
        <g
           id="g28408"
           transform="translate(378.35,364.48)" />
        <g
           id="g52083">
          <g
             id="g52234">
            <g
               id="g28140"
               transform="translate(396.55,318.81)">
              <path
                 style="fill:#ffffff"
                 inkscape:connector-curvature="0"
                 id="path28142"
                 d="m 0,0 c -6.65,-1.97 -14.494,-2.425 -20.456,-2.41 -5.961,-0.015 -13.805,0.44 -20.455,2.41 -11.08,3.283 -11.953,14.624 -6.449,26.443 0.638,1.37 1.362,2.747 2.166,4.119 0.208,0.353 0.42,0.708 0.638,1.062 0.318,0.514 0.645,1.006 0.982,1.48 0.455,0.636 0.926,1.238 1.411,1.804 8.639,10.095 21.707,9.412 21.707,9.412 0,0 13.729,0.717 22.346,-10.187 0.109,-0.138 0.217,-0.278 0.324,-0.419 0.473,-0.625 0.93,-1.286 1.365,-1.986 0.022,-0.035 0.044,-0.07 0.066,-0.104 1.952,-3.162 3.486,-6.37 4.528,-9.476 C 11.588,11.975 9.728,2.883 0,0" />
            </g>
            <g
               style="opacity:0.3;fill:#3f76a2;fill-opacity:1"
               id="g28144"
               clip-path="url(#clipPath592805)">
              <g
                 id="g28146"
                 transform="translate(398.44,352.94)"
                 style="fill:#3f76a2;fill-opacity:1">
                <path
                   style="fill:#3f76a2;fill-opacity:1"
                   inkscape:connector-curvature="0"
                   id="path28148"
                   d="m 0,0 c -5.692,-3.107 -13.703,-6.694 -23.821,-6.646 -8.736,0.041 -16.158,2.948 -21.643,5.617 0.455,0.636 0.926,1.238 1.411,1.804 8.639,10.095 21.707,9.413 21.707,9.413 0,0 13.73,0.716 22.346,-10.188" />
              </g>
            </g>
            <g
               id="g28150"
               transform="translate(376.62,363.14)">
              <path
                 style="fill:#050000"
                 inkscape:connector-curvature="0"
                 id="path28152"
                 d="m 0,0 c -0.341,0 -0.527,-0.01 -0.527,-0.01 0,0 -0.185,0.01 -0.527,0.01 -2.804,0 -16.132,-0.654 -23.573,-12.706 -8.347,-13.52 -9.053,-27.861 3.645,-31.624 6.549,-1.941 14.256,-2.41 20.183,-2.41 l 0.544,0 c 5.927,0 13.635,0.469 20.184,2.41 12.696,3.763 11.991,18.104 3.644,31.624 C 16.132,-0.653 2.804,0 0,0 m -1.054,-0.875 c 0.301,0 0.47,-0.008 0.483,-0.008 l 0.045,-0.003 0.044,0.002 c 0.012,0.001 0.181,0.009 0.482,0.009 2.545,0 15.605,-0.593 22.829,-12.291 5.383,-8.72 7.275,-17.39 5.058,-23.193 -1.343,-3.517 -4.104,-5.916 -8.207,-7.132 -6.624,-1.963 -14.497,-2.375 -19.935,-2.375 l -0.274,10e-4 -0.27,-10e-4 c -5.437,0 -13.31,0.412 -19.934,2.375 -4.104,1.216 -6.865,3.615 -8.207,7.132 -2.217,5.803 -0.327,14.473 5.057,23.193 7.224,11.698 20.284,12.291 22.829,12.291" />
            </g>
            <g
               id="g28154"
               transform="translate(348.54,335.4)">
              <path
                 style="fill:#ffffff"
                 inkscape:connector-curvature="0"
                 id="path28156"
                 d="m 0,0 -3.609,-5.797 c 0,0 -5.788,4.787 -8.01,10.403 -2.219,5.613 2.351,12.663 -1.826,14.098 -1.022,0.352 -1.807,0.234 -2.457,-0.173 -2.712,-1.683 -3.162,-8.325 -9.164,-6.746 -3.232,0.852 -3.657,4.115 -2.246,7.427 0.541,1.277 1.359,2.564 2.393,3.721 1.261,1.414 2.849,2.636 4.655,3.42 1.709,0.744 3.618,1.091 5.641,0.84 C -4.177,25.885 -4.96,16.487 -5.351,12.961 -5.378,12.715 -5.412,12.472 -5.453,12.231 -5.658,10.977 -5.978,9.732 -5.873,8.348 -5.713,6.138 -4.48,3.563 0,0" />
            </g>
            <g
               id="g28158"
               transform="translate(332.64,353.93)"
               style="fill:#4e94cb;fill-opacity:1">
              <path
                 style="fill:#4e94cb;fill-opacity:1"
                 inkscape:connector-curvature="0"
                 id="path28160"
                 d="M 0,0 C -2.711,-1.684 -3.162,-8.325 -9.164,-6.747 -15.165,-5.167 -11.487,4.731 -4.36,7.821 -3.049,7.508 -1.202,6.647 -0.284,4.279 0.321,2.719 0.274,1.227 0,0" />
            </g>
            <g
               id="g28168"
               transform="translate(348.54,335.4)">
              <path
                 style="fill:none;stroke:#050000;stroke-width:0.875;stroke-linecap:round;stroke-miterlimit:10"
                 inkscape:connector-curvature="0"
                 id="path28170"
                 stroke-miterlimit="10"
                 d="m 0,0 -3.609,-5.797 c 0,0 -5.788,4.787 -8.01,10.403 -2.219,5.613 2.351,12.663 -1.826,14.098 -1.022,0.352 -1.807,0.234 -2.457,-0.173 -2.712,-1.683 -3.162,-8.325 -9.164,-6.746 -3.232,0.852 -3.657,4.115 -2.246,7.427 0.541,1.277 1.359,2.564 2.393,3.721 1.261,1.414 2.849,2.636 4.655,3.42 1.709,0.744 3.618,1.091 5.641,0.84 C -4.177,25.885 -4.96,16.487 -5.351,12.961 -5.378,12.715 -5.412,12.472 -5.453,12.231 -5.658,10.977 -5.978,9.732 -5.873,8.348 -5.713,6.138 -4.48,3.563 0,0 Z" />
            </g>
            <g
               id="g28172"
               transform="translate(378.52,330.43)">
              <path
                 style="fill:#ffffff"
                 inkscape:connector-curvature="0"
                 id="path28174"
                 d="m 0,0 c 0.123,-0.408 0.642,-0.829 1.454,-1.162 3.764,-1.541 13.838,-1.19 20.186,11.032 0.371,0.712 0.727,1.463 1.07,2.257 L 8.574,16.606 c 0,0 -0.113,-0.715 -0.389,-1.831 C 7.824,13.321 7.19,11.189 6.172,9.088 5.939,8.604 5.684,8.12 5.407,7.647 3.012,3.552 -0.695,2.317 0,0" />
            </g>
            <g
               style="opacity:0.2;fill:#3f76a2;fill-opacity:1"
               id="g28176"
               clip-path="url(#clipPath592857)">
              <g
                 id="g28178"
                 transform="translate(378.52,330.43)"
                 style="fill:#3f76a2;fill-opacity:1">
                <path
                   style="fill:#3f76a2;fill-opacity:1"
                   inkscape:connector-curvature="0"
                   id="path28180"
                   d="M 0,0 C 0.69,-2.3 13.921,-4.992 21.64,9.87 21.619,9.851 21.602,9.832 21.585,9.817 20.701,8.991 19.756,8.232 18.76,7.543 16.785,6.176 14.623,5.108 12.344,4.35 10.92,3.884 9.396,3.545 7.933,3.857 7.136,4.027 6.327,4.444 5.986,5.183 5.785,5.619 5.771,6.117 5.801,6.597 5.857,7.468 6.059,8.329 6.392,9.136 6.317,9.12 6.246,9.105 6.172,9.088 5.939,8.604 5.684,8.12 5.407,7.647 3.012,3.552 -0.695,2.317 0,0" />
              </g>
            </g>
            <g
               style="opacity:0.3;fill:#3f76a2;fill-opacity:1"
               id="g28182"
               clip-path="url(#clipPath592873)">
              <g
                 id="g28184"
                 transform="translate(378.52,330.43)"
                 style="fill:#3f76a2;fill-opacity:1">
                <path
                   style="fill:#3f76a2;fill-opacity:1"
                   inkscape:connector-curvature="0"
                   id="path28186"
                   d="m 0,0 c 0.123,-0.408 0.642,-0.829 1.454,-1.162 -0.093,0.728 0.106,1.526 0.477,2.174 0.598,1.043 1.552,1.825 2.381,2.695 0.789,0.826 1.466,1.752 2.027,2.745 1.031,1.831 1.658,3.89 1.828,5.986 0.061,0.754 0.091,1.559 0.018,2.337 C 7.824,13.321 7.19,11.189 6.172,9.088 5.939,8.604 5.684,8.12 5.407,7.647 3.012,3.552 -0.695,2.317 0,0" />
              </g>
            </g>
            <g
               id="g28188"
               transform="translate(387.1,347.04)">
              <path
                 style="fill:none;stroke:#050000;stroke-width:0.875;stroke-linecap:round;stroke-miterlimit:10"
                 inkscape:connector-curvature="0"
                 id="path28190"
                 stroke-miterlimit="10"
                 d="m 0,0 c 0,0 -0.113,-0.716 -0.39,-1.831 -0.36,-1.454 -0.994,-3.586 -2.012,-5.688 -0.233,-0.484 -0.489,-0.967 -0.765,-1.44 -2.395,-4.096 -6.103,-5.33 -5.407,-7.647 0.123,-0.409 0.641,-0.83 1.454,-1.163 3.764,-1.541 13.838,-1.189 20.185,11.033 0.372,0.712 0.728,1.463 1.071,2.257" />
            </g>
            <g
               id="g28192"
               transform="translate(373.99,330.43)">
              <path
                 style="fill:#ffffff"
                 inkscape:connector-curvature="0"
                 id="path28194"
                 d="m 0,0 c -0.123,-0.408 -0.642,-0.829 -1.454,-1.162 -3.764,-1.541 -13.838,-1.19 -20.186,11.032 -0.371,0.712 -0.727,1.463 -1.07,2.257 l 14.136,4.479 c 0,0 0.113,-0.715 0.389,-1.831 0.36,-1.454 0.995,-3.586 2.013,-5.687 C -5.939,8.604 -5.684,8.12 -5.407,7.647 -3.012,3.552 0.695,2.317 0,0" />
            </g>
            <g
               style="opacity:0.2;fill:#3f76a2;fill-opacity:1"
               id="g28196"
               clip-path="url(#clipPath592897)">
              <g
                 id="g28198"
                 transform="translate(373.99,330.43)"
                 style="fill:#3f76a2;fill-opacity:1">
                <path
                   style="fill:#3f76a2;fill-opacity:1"
                   inkscape:connector-curvature="0"
                   id="path28200"
                   d="m 0,0 c -0.691,-2.3 -13.921,-4.992 -21.64,9.87 0.021,-0.019 0.037,-0.038 0.055,-0.053 0.884,-0.826 1.829,-1.585 2.824,-2.274 1.976,-1.367 4.138,-2.435 6.417,-3.193 1.424,-0.466 2.948,-0.805 4.411,-0.493 0.797,0.17 1.606,0.587 1.947,1.326 0.2,0.436 0.215,0.934 0.185,1.414 C -5.857,7.468 -6.059,8.329 -6.392,9.136 -6.317,9.12 -6.246,9.105 -6.172,9.088 -5.939,8.604 -5.684,8.12 -5.407,7.647 -3.012,3.552 0.695,2.317 0,0" />
              </g>
            </g>
            <g
               style="opacity:0.3;fill:#3f76a2;fill-opacity:1"
               id="g28202"
               clip-path="url(#clipPath592913)">
              <g
                 id="g28204"
                 transform="translate(373.99,330.43)"
                 style="fill:#3f76a2;fill-opacity:1">
                <path
                   style="fill:#3f76a2;fill-opacity:1"
                   inkscape:connector-curvature="0"
                   id="path28206"
                   d="m 0,0 c -0.123,-0.408 -0.642,-0.829 -1.454,-1.162 0.093,0.728 -0.106,1.526 -0.477,2.174 -0.598,1.043 -1.552,1.825 -2.381,2.695 -0.789,0.826 -1.466,1.752 -2.027,2.745 -1.031,1.831 -1.658,3.89 -1.828,5.986 -0.062,0.754 -0.092,1.559 -0.018,2.337 0.36,-1.454 0.995,-3.586 2.013,-5.687 C -5.939,8.604 -5.684,8.12 -5.407,7.647 -3.012,3.552 0.695,2.317 0,0" />
              </g>
            </g>
            <g
               id="g28208"
               transform="translate(365.41,347.04)">
              <path
                 style="fill:none;stroke:#050000;stroke-width:0.875;stroke-linecap:round;stroke-miterlimit:10"
                 inkscape:connector-curvature="0"
                 id="path28210"
                 stroke-miterlimit="10"
                 d="m 0,0 c 0,0 0.113,-0.716 0.39,-1.831 0.359,-1.454 0.994,-3.586 2.012,-5.688 0.233,-0.484 0.489,-0.967 0.765,-1.44 2.395,-4.096 6.103,-5.33 5.407,-7.647 -0.123,-0.409 -0.641,-0.83 -1.454,-1.163 -3.764,-1.541 -13.838,-1.189 -20.185,11.033 -0.372,0.712 -0.728,1.463 -1.071,2.257" />
            </g>
            <g
               id="g28212"
               transform="translate(354.56,331.79)">
              <path
                 style="fill:#413757"
                 inkscape:connector-curvature="0"
                 id="path28214"
                 d="M 0,0 C 0,0 -9.326,10.982 -14.933,1.722" />
            </g>
            <g
               style="opacity:0.2;fill:#1e6ca9;fill-opacity:1"
               id="g28162"
               clip-path="url(#clipPath592833)">
              <g
                 style="fill:#1e6ca9;fill-opacity:1"
                 id="g28164"
                 transform="translate(348.54,335.4)">
                <path
                   style="fill:#1e6ca9;fill-opacity:1"
                   inkscape:connector-curvature="0"
                   id="path28166"
                   d="m 0,0 -3.609,-5.797 c 0,0 -5.788,4.787 -8.01,10.403 -2.219,5.613 2.351,12.663 -1.826,14.098 -1.022,0.352 -1.807,0.234 -2.457,-0.173 -2.712,-1.683 -3.162,-8.325 -9.164,-6.746 -3.232,0.852 -3.657,4.115 -2.246,7.427 0.25,-0.457 0.646,-0.826 1.264,-1.046 1.014,-0.358 2.149,0.079 3.011,0.72 0.864,0.641 1.566,1.482 2.445,2.1 1.314,0.927 2.945,1.3 4.548,1.396 1.462,0.09 2.991,-0.053 4.257,-0.789 2.343,-1.365 3.17,-4.398 3.046,-7.105 -0.075,-1.671 -0.102,-3.315 -0.1,-4.989 0.002,-1.626 0.385,-3.247 1.918,-4.075 0.412,-0.223 1.608,-0.336 2.07,-0.261 C -3.467,3.244 -3.788,3.472 0,0" />
              </g>
            </g>
            <g
               id="g28216"
               transform="translate(422.15,326.75)">
              <path
                 style="fill:#ffffff"
                 inkscape:connector-curvature="0"
                 id="path28218"
                 d="m 0,0 c -0.004,-0.598 -0.042,-1.171 -0.11,-1.721 -0.375,-2.958 -1.657,-5.227 -3.194,-6.939 -2.65,-2.954 -6.476,-4.576 -10.446,-4.576 l -64.575,0 c -1.232,-0.006 -3.35,0.152 -5.718,1.18 -1.784,0.775 -3.403,1.918 -4.728,3.395 -1.822,2.027 -3.285,4.844 -3.304,8.661 -0.047,8.814 6.38,9.146 9.66,6.251 1.064,1.4 1.665,2.647 2.325,2.794 4.32,3.144 8.91,-0.858 8.91,-0.858 0,0 4.934,-3.113 6.383,-7.659 1.219,-3.823 4.164,-6.849 7.998,-8.033 7.012,-2.165 14.513,-2.165 21.525,0 l 0.815,0.251 c 3.794,1.172 6.716,4.15 7.959,7.919 1.473,4.464 4.77,7.169 4.77,7.169 0,0 3.373,2.283 5.853,2.522 2.111,0.204 3.466,-1.004 4.187,-1.166 0.601,-0.132 1.431,-1.641 2.405,-2.859 2.451,1.817 6.242,2.103 8.13,-1.074 0.491,-0.821 0.853,-1.876 1.032,-3.196 0.03,-0.223 0.053,-0.453 0.072,-0.69 C -0.046,1.324 -0.042,1.274 -0.04,1.226 -0.012,0.838 0.002,0.429 0,0" />
            </g>
            <g
               style="opacity:0.3;fill:#3f76a2;fill-opacity:1"
               id="g28220"
               clip-path="url(#clipPath592941)">
              <g
                 id="g28222"
                 transform="translate(422.04,325.03)"
                 style="fill:#3f76a2;fill-opacity:1">
                <path
                   style="fill:#3f76a2;fill-opacity:1"
                   inkscape:connector-curvature="0"
                   id="path28224"
                   d="m 0,0 c -0.375,-2.958 -1.656,-5.228 -3.192,-6.939 -2.652,-2.954 -6.479,-4.577 -10.448,-4.577 l -64.091,0 c -3.969,0 -8.28,1.621 -10.93,4.576 -1.537,1.711 -2.334,3.982 -2.709,6.94 0.407,0.21 0,0.659 0,0.659 0,0 -0.668,-9.008 23.265,-8.526 0.303,0.007 1.407,-0.003 3.006,-0.028 12.942,-0.196 25.885,-0.196 38.827,0 1.599,0.025 2.704,0.035 3.007,0.028 C 0.669,-8.349 -0.23,0.292 -0.23,0.292 -0.23,0.292 -0.408,0.21 0,0" />
              </g>
            </g>
            <g
               style="opacity:0.3;fill:#3f76a2;fill-opacity:1"
               id="g28226"
               clip-path="url(#clipPath592957)">
              <g
                 id="g28228"
                 transform="translate(422.34,327.23)"
                 style="fill:#3f76a2;fill-opacity:1">
                <path
                   style="fill:#3f76a2;fill-opacity:1"
                   inkscape:connector-curvature="0"
                   id="path28230"
                   d="m 0,0 c 0,-0.047 -0.053,0.263 -0.226,0.744 -0.454,1.264 -1.666,4.36 -4.918,4.718 -4.495,0.493 -7.767,-5.911 -7.767,-5.911 l -0.157,0.47 c 0.495,1.129 1.248,2.782 1.895,3.937 1.825,3.262 7.403,4.905 9.831,0.818 C -0.913,3.285 -0.489,1.799 -0.237,0.891 -0.089,0.364 0,0.032 0,0" />
              </g>
            </g>
            <g
               style="opacity:0.3;fill:#3f76a2;fill-opacity:1"
               id="g28232"
               clip-path="url(#clipPath592973)">
              <g
                 id="g28234"
                 transform="translate(397.59,331.57)"
                 style="fill:#3f76a2;fill-opacity:1">
                <path
                   style="fill:#3f76a2;fill-opacity:1"
                   inkscape:connector-curvature="0"
                   id="path28236"
                   d="M 0,0 C 13.765,9.428 12.806,-1.588 12.806,-1.588 13.692,0.419 14.187,0.726 15.148,1.69 14.585,2.884 11.539,4.993 11.539,4.993 11.283,5.252 10.654,5.261 10.47,5.64 10.417,5.752 6.539,5.04 6.488,5.162 Z" />
              </g>
            </g>
            <g
               id="g28238"
               transform="translate(412.77,333.36)">
              <path
                 style="fill:none;stroke:#050000;stroke-width:0.875;stroke-linecap:round;stroke-miterlimit:10"
                 inkscape:connector-curvature="0"
                 id="path28240"
                 stroke-miterlimit="10"
                 d="m 0,0 c 0,0 -2.794,5.238 -7.838,3.415 -3.647,-1.281 -6.053,-3.881 -7.061,-4.967" />
            </g>
            <g
               id="g28242"
               transform="translate(368.53,313.31)">
              <path
                 style="fill:none;stroke:#050000;stroke-width:0.875;stroke-linecap:round;stroke-miterlimit:10"
                 inkscape:connector-curvature="0"
                 id="path28244"
                 stroke-miterlimit="10"
                 d="m 0,0 40.141,0 c 0,0 13.884,0.069 13.472,14.641 -0.343,6.942 -5.874,7.666 -9.379,5.053 0,0 -1.902,-1.142 -3.719,-6.249" />
            </g>
            <g
               style="opacity:0.3;fill:#3f76a2;fill-opacity:1"
               id="g28246"
               clip-path="url(#clipPath592997)">
              <g
                 id="g28248"
                 transform="translate(330.08,327.23)"
                 style="fill:#3f76a2;fill-opacity:1">
                <path
                   style="fill:#3f76a2;fill-opacity:1"
                   inkscape:connector-curvature="0"
                   id="path28250"
                   d="m 0,0 c 0,-0.047 0.053,0.263 0.226,0.744 0.453,1.264 1.666,4.36 4.918,4.718 4.495,0.493 7.767,-5.911 7.767,-5.911 l 0.157,0.47 C 12.573,1.15 11.819,2.803 11.173,3.958 9.348,7.22 3.77,8.863 1.341,4.776 0.912,3.285 0.489,1.799 0.236,0.891 0.089,0.364 0,0.032 0,0" />
              </g>
            </g>
            <g
               style="opacity:0.3;fill:#3f76a2;fill-opacity:1"
               id="g28252"
               clip-path="url(#clipPath593013)">
              <g
                 id="g28254"
                 transform="translate(354.82,331.57)"
                 style="fill:#3f76a2;fill-opacity:1">
                <path
                   style="fill:#3f76a2;fill-opacity:1"
                   inkscape:connector-curvature="0"
                   id="path28256"
                   d="m 0,0 c -13.765,9.428 -12.807,-1.588 -12.807,-1.588 -0.886,2.007 -1.034,2.266 -1.996,3.231 0.564,1.193 2.825,3.266 2.825,3.266 0.257,0.259 1.131,0.309 1.316,0.688 0.053,0.111 4.122,-0.557 4.174,-0.435 z" />
              </g>
            </g>
            <g
               id="g28258"
               transform="translate(339.73,333.36)">
              <path
                 style="fill:none;stroke:#050000;stroke-width:0.875;stroke-linecap:round;stroke-miterlimit:10"
                 inkscape:connector-curvature="0"
                 id="path28260"
                 stroke-miterlimit="10"
                 d="m 0,0 c 0,0 2.794,5.238 7.838,3.415 3.647,-1.281 6.053,-3.881 7.061,-4.967" />
            </g>
            <g
               id="g28262"
               transform="translate(383.97,313.31)">
              <path
                 style="fill:none;stroke:#050000;stroke-width:0.875;stroke-linecap:round;stroke-miterlimit:10"
                 inkscape:connector-curvature="0"
                 id="path28264"
                 stroke-miterlimit="10"
                 d="m 0,0 -40.141,0 c 0,0 -13.884,0.069 -13.472,14.641 0.343,6.942 5.874,7.666 9.379,5.053 0,0 1.902,-1.142 3.719,-6.249" />
            </g>
            <g
               id="g28266"
               transform="translate(339.74,324.78)"
               style="fill:#4e94cb;fill-opacity:1">
              <path
                 style="fill:#4e94cb;fill-opacity:1"
                 inkscape:connector-curvature="0"
                 id="path28268"
                 d="M 0,0 C 0.637,-1.734 0.095,-3.529 -1.211,-4.009 -2.517,-4.487 -4.091,-3.47 -4.728,-1.734 -5.363,0 -4.821,1.794 -3.516,2.273 -2.21,2.752 -0.636,1.734 0,0" />
            </g>
            <g
               id="g28270"
               transform="translate(339.37,329.85)"
               style="fill:#4e94cb;fill-opacity:1">
              <path
                 style="fill:#4e94cb;fill-opacity:1"
                 inkscape:connector-curvature="0"
                 id="path28272"
                 d="M 0,0 C 0.29,-0.79 0.043,-1.608 -0.552,-1.826 -1.146,-2.045 -1.864,-1.581 -2.154,-0.79 -2.444,0 -2.197,0.818 -1.603,1.037 -1.007,1.255 -0.29,0.791 0,0" />
            </g>
            <g
               id="g28274"
               transform="translate(336.26,330.17)"
               style="fill:#4e94cb;fill-opacity:1">
              <path
                 style="fill:#4e94cb;fill-opacity:1"
                 inkscape:connector-curvature="0"
                 id="path28276"
                 d="M 0,0 C 0.29,-0.79 0.043,-1.608 -0.553,-1.826 -1.147,-2.045 -1.865,-1.581 -2.155,-0.79 -2.445,0 -2.198,0.818 -1.603,1.036 -1.008,1.255 -0.29,0.791 0,0" />
            </g>
            <g
               id="g28278"
               transform="translate(334.26,327.77)"
               style="fill:#4e94cb;fill-opacity:1">
              <path
                 style="fill:#4e94cb;fill-opacity:1"
                 inkscape:connector-curvature="0"
                 id="path28280"
                 d="M 0,0 C 0.265,-0.72 0.039,-1.464 -0.503,-1.663 -1.044,-1.861 -1.697,-1.439 -1.961,-0.72 -2.226,0 -2,0.745 -1.459,0.943 -0.917,1.143 -0.264,0.72 0,0" />
            </g>
            <g
               id="g28282"
               transform="translate(412.72,324.78)"
               style="fill:#4e94cb;fill-opacity:1">
              <path
                 style="fill:#4e94cb;fill-opacity:1"
                 inkscape:connector-curvature="0"
                 id="path28284"
                 d="M 0,0 C -0.637,-1.734 -0.094,-3.529 1.212,-4.009 2.517,-4.487 4.092,-3.47 4.728,-1.734 5.364,0 4.822,1.794 3.517,2.273 2.211,2.752 0.637,1.734 0,0" />
            </g>
            <g
               id="g28286"
               transform="translate(413.09,329.85)"
               style="fill:#4e94cb;fill-opacity:1">
              <path
                 style="fill:#4e94cb;fill-opacity:1"
                 inkscape:connector-curvature="0"
                 id="path28288"
                 d="M 0,0 C -0.29,-0.79 -0.043,-1.608 0.553,-1.826 1.147,-2.045 1.865,-1.581 2.155,-0.79 2.445,0 2.198,0.818 1.603,1.037 1.008,1.255 0.29,0.791 0,0" />
            </g>
            <g
               id="g28290"
               transform="translate(416.2,330.17)"
               style="fill:#4e94cb;fill-opacity:1">
              <path
                 style="fill:#4e94cb;fill-opacity:1"
                 inkscape:connector-curvature="0"
                 id="path28292"
                 d="M 0,0 C -0.29,-0.79 -0.043,-1.608 0.552,-1.826 1.146,-2.045 1.864,-1.581 2.154,-0.79 2.444,0 2.197,0.818 1.603,1.036 1.007,1.255 0.29,0.791 0,0" />
            </g>
            <g
               id="g28294"
               transform="translate(418.19,327.77)"
               style="fill:#4e94cb;fill-opacity:1">
              <path
                 style="fill:#4e94cb;fill-opacity:1"
                 inkscape:connector-curvature="0"
                 id="path28296"
                 d="M 0,0 C -0.264,-0.72 -0.039,-1.464 0.503,-1.663 1.045,-1.861 1.698,-1.439 1.962,-0.72 2.226,0 2.001,0.745 1.459,0.943 0.918,1.143 0.265,0.72 0,0" />
            </g>
            <g
               id="g28298"
               transform="translate(407.41,371.27)">
              <path
                 style="fill:#ffffff"
                 inkscape:connector-curvature="0"
                 id="path28300"
                 d="m 0,0 c 0.426,-2.397 1.652,-4.744 1.564,-5.52 -0.181,-1.568 -3.684,0.301 -3.684,0.301 0,0 -0.207,-0.491 0.492,-1.895 0.52,-1.044 0.976,-1.809 0.76,-2.369 -0.231,-0.596 -1.25,-0.716 -2.437,-0.579 -0.832,0.097 -1.538,-0.01 -2.459,-1.002 -0.183,-0.193 -0.37,-0.42 -0.566,-0.685 -0.002,-0.002 -0.004,-0.003 -0.006,-0.003 l -0.002,-0.002 c -2.759,-3.185 -6.117,-6.118 -10.565,-8.2 -4.127,-1.931 -22.307,-8.27 -38.461,4.27 -2.057,1.597 -3.905,3.438 -5.321,5.696 -0.348,0.099 -0.692,0.097 -1.062,0.058 -1.189,-0.133 -2.207,-0.01 -2.435,0.589 -0.213,0.559 0.175,1.389 0.651,2.462 0.384,0.864 0.537,1.406 0.592,1.649 0.012,0.061 -0.038,0.111 -0.087,0.088 -0.611,-0.306 -3.414,-1.625 -3.572,-0.227 -0.086,0.777 1.154,3.117 1.588,5.515 0.712,3.911 1.271,6.664 1.626,8.324 0.009,0.046 0.019,0.091 0.03,0.135 0.008,0.044 0.019,0.089 0.027,0.13 0.008,0.043 0.02,0.085 0.028,0.126 0.107,0.484 0.227,0.962 0.361,1.44 0.609,2.205 1.482,4.39 2.596,6.864 -1.606,2.785 -8.379,15.17 -4.681,19.872 2.111,2.686 16.544,-2.677 19.702,-3.897 3.457,1.661 7.378,2.681 11.732,2.865 0.879,0.038 1.741,0.04 2.585,0.004 0.021,0.003 0.045,0.002 0.065,-10e-4 2.835,-0.106 5.376,-0.837 7.816,-1.691 0.286,-0.102 0.571,-0.204 0.855,-0.306 1.16,-0.422 2.254,-0.916 3.293,-1.463 3.198,1.115 18.162,6.172 20.184,3.42 3.531,-4.802 -3.58,-16.896 -5.303,-19.682 0.417,-0.91 0.787,-1.808 1.115,-2.716 0.392,-1.085 0.717,-2.179 0.977,-3.316 0,0 0.003,-0.019 0.012,-0.06 0.073,-0.313 0.42,-1.845 0.971,-4.68 C -0.731,4.033 -0.389,2.2 0,0" />
            </g>
            <g
               style="opacity:0.3;fill:#3f76a2;fill-opacity:1"
               id="g28302"
               clip-path="url(#clipPath593073)">
              <g
                 id="g28304"
                 transform="translate(405.79,364.15)"
                 style="fill:#3f76a2;fill-opacity:1">
                <path
                   style="fill:#3f76a2;fill-opacity:1"
                   inkscape:connector-curvature="0"
                   id="path28306"
                   d="m 0,0 c 0.52,-1.046 0.976,-1.81 0.76,-2.369 -0.231,-0.596 -1.249,-0.717 -2.438,-0.58 -0.831,0.097 -1.536,-0.01 -2.458,-1.003 -0.182,-0.192 -0.369,-0.419 -0.566,-0.684 -0.002,-0.002 -0.004,-0.002 -0.006,-0.002 L -4.71,-4.64 c -2.76,-3.186 -6.118,-6.12 -10.566,-8.2 -4.125,-1.931 -22.306,-8.269 -38.46,4.27 -2.057,1.597 -3.906,3.437 -5.322,5.695 -0.348,0.1 -0.691,0.098 -1.06,0.059 -1.189,-0.133 -2.207,-0.01 -2.436,0.587 -0.212,0.561 0.176,1.391 0.652,2.462 0.067,0.157 0.13,0.3 0.182,0.437 0.435,-0.096 0.995,-0.094 1.602,-0.025 0.369,0.039 0.712,0.041 1.06,-0.059 1.416,-2.26 3.265,-4.1 5.322,-5.697 16.154,-12.539 34.335,-6.2 38.46,-4.27 4.448,2.082 7.806,5.014 10.566,8.2 l 0.002,0.002 c 0.002,0 0.004,0 0.006,0.002 0.197,0.265 0.384,0.493 0.566,0.686 0.922,0.993 1.627,1.1 2.458,1.003 C -1.142,0.449 -0.641,0.439 -0.23,0.502 -0.168,0.351 -0.092,0.183 0,0" />
              </g>
            </g>
            <g
               style="opacity:0.3;fill:#4e94cb;fill-opacity:1"
               id="g28308"
               clip-path="url(#clipPath593089)">
              <g
                 style="opacity:0.5;fill:#4e94cb;fill-opacity:1"
                 id="g28310"
                 clip-path="url(#clipPath593093)">
                <g
                   id="g28312"
                   transform="translate(409.55,404.62)"
                   style="fill:#4e94cb;fill-opacity:1">
                  <path
                     style="fill:#4e94cb;fill-opacity:1"
                     inkscape:connector-curvature="0"
                     id="path28314"
                     d="m 0,0 c -0.064,0.107 -0.137,0.212 -0.211,0.313 -2.239,3.048 -18.826,-2.556 -22.371,-3.792 -1.151,0.607 -2.365,1.155 -3.649,1.622 -0.159,0.057 -0.316,0.113 -0.473,0.17 -4.62,1.661 -9.546,1.539 -14.342,0.898 -0.339,-0.045 -0.672,-0.125 -0.993,-0.24 -0.002,-0.001 -0.004,-0.002 -0.005,-0.002 -1.286,-0.467 -2.499,-1.014 -3.65,-1.623 -3.544,1.237 -20.131,6.841 -22.372,3.793 -0.074,-0.102 -0.146,-0.207 -0.21,-0.314 0.102,1.001 0.391,1.894 0.925,2.619 2.023,2.753 16.987,-2.304 20.185,-3.42 1.038,0.548 2.134,1.043 3.293,1.464 0.284,0.101 0.569,0.101 0.855,0.202 0,0 10.576,2.579 17.76,-0.722 0.286,-0.102 0.571,-0.205 0.856,-0.306 1.159,-0.421 2.255,-0.916 3.293,-1.463 3.198,1.116 18.16,6.173 20.184,3.421 C -0.392,1.893 -0.102,1.001 0,0" />
                </g>
              </g>
            </g>
            <g
               id="g28316"
               transform="translate(405.51,402.67)"
               style="fill:#4e94cb;fill-opacity:1">
              <path
                 style="fill:#4e94cb;fill-opacity:1"
                 inkscape:connector-curvature="0"
                 id="path28318"
                 d="m 0,0 c 0.005,-1.93 -0.571,-3.812 -1.205,-5.636 -0.691,-1.988 -1.502,-4.016 -3.018,-5.475 -0.258,-0.249 -0.589,-0.495 -0.942,-0.429 -0.29,0.054 -0.497,0.303 -0.67,0.541 -0.39,0.534 -0.739,1.095 -1.072,1.666 -0.766,1.308 -1.454,2.668 -2.385,3.863 -0.362,0.463 -0.789,0.993 -0.935,1.515 -0.131,0.471 -0.032,0.935 0.559,1.335 1.786,1.212 3.774,2.122 5.855,2.691 1.015,0.279 2.052,0.474 3.099,0.586 0.184,0.019 0.388,0.03 0.531,-0.085 C -0.021,0.442 -0.001,0.207 0,0" />
            </g>
            <g
               id="g28320"
               transform="translate(404.99,404.21)">
              <path
                 style="fill:#050000"
                 inkscape:connector-curvature="0"
                 id="path28322"
                 d="m 0,0 c -0.095,0 -0.191,-0.007 -0.283,-0.017 -1.091,-0.116 -2.181,-0.322 -3.238,-0.612 -2.192,-0.6 -4.249,-1.545 -6.115,-2.811 -0.841,-0.57 -1.165,-1.385 -0.91,-2.295 0.186,-0.665 0.64,-1.245 1.041,-1.757 l 0.047,-0.06 c 0.668,-0.858 1.204,-1.807 1.772,-2.811 0.181,-0.319 0.362,-0.638 0.546,-0.956 0.405,-0.692 0.761,-1.246 1.121,-1.74 0.165,-0.227 0.554,-0.762 1.218,-0.885 0.091,-0.016 0.185,-0.025 0.279,-0.025 0.717,0 1.252,0.513 1.428,0.682 1.684,1.622 2.555,3.855 3.239,5.82 0.609,1.752 1.258,3.799 1.253,5.925 C 1.397,-1.309 1.395,-0.695 0.889,-0.29 0.646,-0.096 0.348,0 0,0 m 0,-0.875 c 0.124,0 0.246,-0.021 0.341,-0.097 0.162,-0.13 0.181,-0.365 0.182,-0.572 0.005,-1.93 -0.571,-3.811 -1.205,-5.636 -0.691,-1.987 -1.502,-4.016 -3.017,-5.475 -0.23,-0.22 -0.516,-0.439 -0.823,-0.439 -0.04,0 -0.08,0.004 -0.12,0.011 -0.29,0.053 -0.497,0.302 -0.67,0.541 -0.389,0.534 -0.739,1.094 -1.072,1.666 -0.765,1.307 -1.454,2.668 -2.385,3.862 -0.362,0.463 -0.789,0.993 -0.934,1.515 -0.132,0.471 -0.032,0.935 0.558,1.335 1.787,1.212 3.775,2.122 5.855,2.691 1.016,0.279 2.053,0.474 3.1,0.586 0.061,0.007 0.127,0.012 0.19,0.012" />
            </g>
            <g
               style="opacity:0.3"
               id="g28324"
               clip-path="url(#clipPath593125)">
              <g
                 id="g28326"
                 transform="translate(401.99,402.8)">
                <path
                   style="fill:#611940"
                   inkscape:connector-curvature="0"
                   id="path28328"
                   d="m 0,0 c -0.002,-0.021 -0.006,-0.044 -0.009,-0.067 -0.227,-2.069 -1.323,-6.515 -3.348,-9.395 -0.009,0 -0.019,0 -0.028,-10e-4 -0.765,1.307 -1.454,2.668 -2.385,3.862 -0.362,0.463 -0.789,0.994 -0.934,1.515 -0.132,0.471 -0.032,0.935 0.558,1.336 1.787,1.211 3.775,2.121 5.855,2.69 C -0.189,-0.044 -0.093,-0.025 0,0" />
              </g>
            </g>
            <g
               id="g28330"
               transform="translate(345.36,403.59)"
               style="fill:#4e94cb;fill-opacity:1">
              <path
                 style="fill:#4e94cb;fill-opacity:1"
                 inkscape:connector-curvature="0"
                 id="path28332"
                 d="m 0,0 c -0.004,-1.93 0.571,-3.812 1.205,-5.635 0.692,-1.988 1.502,-4.016 3.018,-5.476 0.258,-0.249 0.589,-0.495 0.942,-0.428 0.29,0.053 0.497,0.302 0.671,0.54 0.39,0.535 0.739,1.095 1.072,1.666 0.765,1.309 1.453,2.668 2.385,3.864 0.361,0.463 0.788,0.992 0.934,1.514 0.131,0.471 0.032,0.935 -0.559,1.335 C 7.882,-1.408 5.895,-0.498 3.813,0.071 2.798,0.35 1.761,0.545 0.715,0.657 0.531,0.676 0.327,0.687 0.183,0.572 0.021,0.442 0.001,0.208 0,0" />
            </g>
            <g
               id="g28334"
               transform="translate(345.89,405.14)">
              <path
                 style="fill:#050000"
                 inkscape:connector-curvature="0"
                 id="path28336"
                 d="m 0,0 c -0.348,0 -0.645,-0.096 -0.885,-0.286 -0.51,-0.409 -0.512,-1.023 -0.513,-1.254 -0.004,-2.128 0.644,-4.175 1.253,-5.927 0.684,-1.965 1.555,-4.198 3.238,-5.819 0.177,-0.17 0.712,-0.683 1.43,-0.683 0.093,0 0.188,0.009 0.283,0.026 0.659,0.122 1.048,0.657 1.214,0.886 0.359,0.492 0.715,1.046 1.121,1.74 0.184,0.316 0.364,0.635 0.545,0.954 0.568,1.005 1.105,1.953 1.773,2.812 l 0.047,0.059 c 0.4,0.512 0.854,1.092 1.04,1.758 0.255,0.909 -0.068,1.725 -0.911,2.295 -1.864,1.265 -3.922,2.211 -6.114,2.81 -1.057,0.29 -2.146,0.496 -3.237,0.612 C 0.191,-0.007 0.096,0 0,0 m 0,-0.875 c 0.064,0 0.129,-0.005 0.191,-0.012 1.046,-0.112 2.083,-0.307 3.099,-0.586 2.081,-0.569 4.068,-1.479 5.855,-2.691 0.59,-0.399 0.69,-0.864 0.558,-1.335 C 9.558,-6.021 9.131,-6.55 8.77,-7.013 7.838,-8.208 7.149,-9.568 6.385,-10.876 c -0.333,-0.572 -0.683,-1.132 -1.073,-1.666 -0.173,-0.239 -0.38,-0.488 -0.67,-0.541 -0.039,-0.007 -0.08,-0.011 -0.119,-0.011 -0.307,0 -0.594,0.219 -0.824,0.439 -1.515,1.46 -2.325,3.488 -3.017,5.476 -0.634,1.824 -1.209,3.705 -1.205,5.635 0.001,0.208 0.02,0.442 0.182,0.572 0.096,0.076 0.217,0.097 0.341,0.097" />
            </g>
            <g
               style="opacity:0.3"
               id="g28338"
               clip-path="url(#clipPath593149)">
              <g
                 id="g28340"
                 transform="translate(348.89,403.72)">
                <path
                   style="fill:#611940"
                   inkscape:connector-curvature="0"
                   id="path28342"
                   d="m 0,0 c 0.002,-0.021 0.005,-0.044 0.008,-0.067 0.227,-2.069 1.324,-6.515 3.348,-9.395 0.01,0 0.019,0 0.029,-10e-4 0.764,1.308 1.453,2.668 2.385,3.863 0.361,0.463 0.788,0.993 0.933,1.514 C 6.835,-3.615 6.735,-3.15 6.145,-2.75 4.358,-1.539 2.371,-0.629 0.29,-0.06 0.189,-0.044 0.093,-0.024 0,0" />
              </g>
            </g>
            <g
               id="g28344"
               transform="translate(407.41,371.27)">
              <path
                 style="fill:none;stroke:#050000;stroke-width:0.875;stroke-linecap:round;stroke-miterlimit:10"
                 inkscape:connector-curvature="0"
                 id="path28346"
                 stroke-miterlimit="10"
                 d="m 0,0 c 0.426,-2.397 1.652,-4.744 1.564,-5.52 -0.181,-1.568 -3.684,0.301 -3.684,0.301 0,0 -0.207,-0.491 0.492,-1.895 0.52,-1.044 0.976,-1.809 0.76,-2.369 -0.231,-0.596 -1.25,-0.716 -2.437,-0.579 -0.832,0.097 -1.538,-0.01 -2.459,-1.002 -0.183,-0.193 -0.37,-0.42 -0.566,-0.685 -0.002,-0.002 -0.004,-0.003 -0.006,-0.003 l -0.002,-0.002 c -2.759,-3.185 -6.117,-6.118 -10.565,-8.2 -4.127,-1.931 -22.307,-8.27 -38.461,4.27 -2.057,1.597 -3.905,3.438 -5.321,5.696 -0.348,0.099 -0.692,0.097 -1.062,0.058 -1.189,-0.133 -2.207,-0.01 -2.435,0.589 -0.213,0.559 0.175,1.389 0.651,2.462 0.384,0.864 0.537,1.406 0.592,1.649 0.012,0.061 -0.038,0.111 -0.087,0.088 -0.611,-0.306 -3.414,-1.625 -3.572,-0.227 -0.086,0.777 1.154,3.117 1.588,5.515 0.712,3.911 1.271,6.664 1.626,8.324 0.009,0.046 0.019,0.091 0.03,0.135 0.008,0.044 0.019,0.089 0.027,0.13 0.008,0.043 0.02,0.085 0.028,0.126 0.107,0.484 0.227,0.962 0.361,1.44 0.609,2.205 1.482,4.39 2.596,6.864 -1.606,2.785 -8.379,15.17 -4.681,19.872 2.111,2.686 16.544,-2.677 19.702,-3.897 3.457,1.661 7.378,2.681 11.732,2.865 0.879,0.038 1.741,0.04 2.585,0.004 0.021,0.003 0.045,0.002 0.065,-10e-4 2.835,-0.106 5.376,-0.837 7.816,-1.691 0.286,-0.102 0.571,-0.204 0.855,-0.306 1.16,-0.422 2.254,-0.916 3.293,-1.463 3.198,1.115 18.162,6.172 20.184,3.42 3.531,-4.802 -3.58,-16.896 -5.303,-19.682 0.417,-0.91 0.787,-1.808 1.115,-2.716 0.392,-1.085 0.717,-2.179 0.977,-3.316 0,0 0.003,-0.019 0.012,-0.06 0.073,-0.313 0.42,-1.845 0.971,-4.68 C -0.731,4.033 -0.389,2.2 0,0 Z" />
            </g>
            <g
               id="g28348"
               transform="translate(384.35,375.62)">
              <path
                 style="fill:#050000"
                 inkscape:connector-curvature="0"
                 id="path28350"
                 d="m 0,0 c 0.464,-2.68 3.014,-4.476 5.693,-4.012 2.68,0.465 4.476,3.014 4.012,5.694 C 9.24,4.361 6.691,6.158 4.012,5.693 1.331,5.229 -0.465,2.68 0,0" />
              <path
                 style="fill:none;stroke:#050000;stroke-width:0.875;stroke-linecap:round;stroke-miterlimit:10"
                 inkscape:connector-curvature="0"
                 id="path28352"
                 stroke-miterlimit="10"
                 d="m 0,0 c 0.464,-2.68 3.014,-4.476 5.693,-4.012 2.68,0.465 4.476,3.014 4.012,5.694 C 9.24,4.361 6.691,6.158 4.012,5.693 1.331,5.229 -0.465,2.68 0,0 Z" />
            </g>
            <g
               id="g28354"
               transform="translate(386.12682,375.29156)">
              <path
                 style="fill:#ffffff"
                 inkscape:connector-curvature="0"
                 id="path28356"
                 d="M 0,0 C -0.006,-0.939 0.579,-1.705 1.308,-1.71 2.036,-1.714 2.631,-0.957 2.637,-0.018 2.644,0.923 2.058,1.687 1.33,1.692 0.602,1.697 0.007,0.939 0,0" />
            </g>
            <g
               id="g28358"
               transform="translate(390.7,374.87)">
              <path
                 style="fill:#ffffff"
                 inkscape:connector-curvature="0"
                 id="path28360"
                 d="M 0,0 C -0.021,-0.469 0.256,-0.863 0.62,-0.88 0.983,-0.896 1.296,-0.529 1.317,-0.061 1.339,0.409 1.062,0.803 0.698,0.819 0.334,0.837 0.021,0.47 0,0" />
            </g>
            <g
               id="g28362"
               transform="translate(365.15,375.62)">
              <path
                 style="fill:#050000"
                 inkscape:connector-curvature="0"
                 id="path28364"
                 d="m 0,0 c -0.465,-2.68 -3.014,-4.476 -5.693,-4.012 -2.68,0.465 -4.477,3.014 -4.012,5.694 0.465,2.679 3.014,4.476 5.693,4.011 C -1.332,5.229 0.464,2.68 0,0" />
              <path
                 style="fill:none;stroke:#050000;stroke-width:0.875;stroke-linecap:round;stroke-miterlimit:10"
                 inkscape:connector-curvature="0"
                 id="path28366"
                 stroke-miterlimit="10"
                 d="m 0,0 c -0.465,-2.68 -3.014,-4.476 -5.693,-4.012 -2.68,0.465 -4.477,3.014 -4.012,5.694 0.465,2.679 3.014,4.476 5.693,4.011 C -1.332,5.229 0.464,2.68 0,0 Z" />
            </g>
            <g
               id="g28368"
               transform="translate(363.22682,375.29156)">
              <path
                 style="fill:#ffffff"
                 inkscape:connector-curvature="0"
                 id="path28370"
                 d="m 0,0 c 0.007,-0.939 -0.579,-1.705 -1.307,-1.71 -0.728,-0.004 -1.323,0.753 -1.33,1.692 -0.006,0.941 0.58,1.705 1.308,1.71 C -0.601,1.697 -0.006,0.939 0,0" />
            </g>
            <g
               id="g28372"
               transform="translate(358.8,374.87)">
              <path
                 style="fill:#ffffff"
                 inkscape:connector-curvature="0"
                 id="path28374"
                 d="m 0,0 c 0.022,-0.469 -0.255,-0.863 -0.619,-0.88 -0.363,-0.016 -0.676,0.351 -0.697,0.819 -0.022,0.47 0.255,0.864 0.619,0.88 C -0.333,0.837 -0.021,0.47 0,0" />
            </g>
            <g
               id="g28376"
               transform="translate(378.14,364.7)"
               style="fill:#3f76a2;fill-opacity:1">
              <path
                 style="fill:#3f76a2;fill-opacity:1"
                 inkscape:connector-curvature="0"
                 id="path28378"
                 d="m 0.26658555,-3.6448732 c -0.038,0.526 -0.20306554,0.7698227 -0.38006554,1.6998227 -0.464,-0.633 -1.42253281,-0.9576068 -3.05653281,-0.9576068 -1.696,0 -2.6764672,0.3896068 -3.1924672,1.0306068 -0.263,-1.094 -0.5455143,-1.325027 -0.5825143,-1.750027"
                 sodipodi:nodetypes="ccscc" />
            </g>
            <g
               style="opacity:0.3;fill:#1e3141;fill-opacity:1"
               id="g28380"
               clip-path="url(#clipPath593205)"
               transform="matrix(1,0,0,-1,0,730.048)">
              <g
                 id="g28382"
                 transform="translate(378.14,364.7)"
                 style="fill:#1e3141;fill-opacity:1">
                <path
                   style="fill:#000000;fill-opacity:1"
                   inkscape:connector-curvature="0"
                   id="path28384"
                   d="m 0,0 c -0.038,-0.526 -0.12,-1.389 -0.297,-2.319 -0.464,0.633 -1.5695248,1.2836345 -3.2035248,1.2836345 -1.696,0 -2.5294752,-0.7156345 -3.0454752,-1.3566345 -0.263,1.094 -0.369,2.083 -0.406,2.508 2.858,0.312 3.431,2.926 3.431,2.926 0,0 0.649,-2.773 3.521,-3.042"
                   sodipodi:nodetypes="ccscccc" />
              </g>
            </g>
            <g
               id="g28386"
               transform="matrix(1,0,0,-1,378.03352,360.45321)"
               style="fill:#4e94cb;fill-opacity:1">
              <path
                 style="fill:#4e94cb;fill-opacity:1"
                 inkscape:connector-curvature="0"
                 id="path28388"
                 d="M 0,-2.1333199 C -0.38,-4.1173199 -1.192,-4.282 -2.919,-4.28 c -1.914,0.001 -2.866,0.1326801 -3.33,2.0746801 0.516,0.64 1.5795328,1.21650423 3.2755328,1.21650423 1.634,0 2.5094672,-0.51050423 2.9734672,-1.14450423"
                 sodipodi:nodetypes="cccsc" />
            </g>
            <path
               transform="matrix(1,0,0,-1,378.71,358.20621)"
               style="fill:#050000"
               inkscape:connector-curvature="0"
               id="path28392"
               d="m 0,-3.1999799 c -0.042,-0.79 -0.127,-1.552 -0.257,-2.288 -0.04,-0.235 0.0110403,-0.067976 -0.0399597,-0.298976 -0.164,-0.752 0.0623838,0.2635195 -0.19961614,-0.4514805 C -0.89657589,-7.3264364 -2.257,-7.043 -3.24,-7.245 c -0.167,-0.033 -0.5797754,-0.8364177 -0.7457754,-0.8364177 -0.705,0 -1.0431843,0.7458457 -1.5811843,1.3158453 l -0.4684756,0.012 c -0.824,0.953 -0.9695647,-0.6484075 -1.2765647,0.5035925 -0.06,0.216 -0.11,0.43 -0.155,0.636 -0.295,1.357 -0.329,2.451 -0.331,2.538 -0.006,0.215 0.163,0.2674017 0.377,0.2724017 0.215,0.007 0.392,-0.038402 0.398,-0.2514017 0,-0.018 0.163629,-0.7408226 0.356629,-1.8128226 0.3382835,-1.0348151 1.5797955,-1.5430815 2.7268435,-1.3907274 1.1622857,-0.226067 2.6639285,0.4538087 2.8550356,1.4386869 0.077,0.534 0.2794919,1.0968629 0.3104919,1.6618629 0.011,0.212 0.191,0.378 0.407,0.365 0.214,-0.011 0.378,-0.193 0.367,-0.407"
               sodipodi:nodetypes="cccccsccccccccccccc" />
            <g
               id="g28396"
               transform="translate(367.57,368.2)">
              <path
                 style="fill:#ffffff"
                 inkscape:connector-curvature="0"
                 id="path28398"
                 d="M 0,0 C -0.071,-4.568 7.108,-4.681 7.181,-0.112" />
            </g>
            <g
               id="g28404"
               transform="translate(374.75,368.09)">
              <path
                 style="fill:#ffffff"
                 inkscape:connector-curvature="0"
                 id="path28406"
                 d="M 0,0 C -0.072,-4.568 7.108,-4.681 7.18,-0.112" />
            </g>
            <g
               id="g28412"
               transform="translate(378.03,372.27)">
              <path
                 style="fill:#050000"
                 inkscape:connector-curvature="0"
                 id="path28414"
                 d="m 0,0 c 0,-1.203 -1.548,-2.179 -3.457,-2.179 -1.908,0 -3.456,0.976 -3.456,2.179 0,1.203 1.548,2.179 3.456,2.179 C -1.548,2.179 0,1.203 0,0" />
            </g>
            <g
               id="g28416"
               transform="translate(374.76,373.56)">
              <path
                 style="fill:#050000"
                 inkscape:connector-curvature="0"
                 id="path28418"
                 d="m 0,0 c -1.437,0 -2.512,-0.682 -2.512,-1.291 0,-0.61 1.075,-1.292 2.512,-1.292 1.437,0 2.511,0.682 2.511,1.292 C 2.511,-0.682 1.437,0 0,0 m 0,-4.161 c -2.294,0 -4.09,1.261 -4.09,2.87 0,1.609 1.796,2.869 4.09,2.869 2.293,0 4.089,-1.26 4.089,-2.869 0,-1.609 -1.796,-2.87 -4.089,-2.87" />
            </g>
            <g
               id="g28420"
               transform="translate(376.1,373.31)">
              <path
                 style="fill:#ffffff"
                 inkscape:connector-curvature="0"
                 id="path28422"
                 d="m 0,0 c 0,-0.283 -0.651,-0.512 -1.455,-0.512 -0.804,0 -1.456,0.229 -1.456,0.512 0,0.282 0.652,0.512 1.456,0.512 C -0.651,0.512 0,0.282 0,0" />
            </g>
            <g
               id="g28424"
               transform="translate(374.7,367)">
              <path
                 style="fill:none;stroke:#000000;stroke-width:0.875;stroke-linecap:round;stroke-miterlimit:10"
                 inkscape:connector-curvature="0"
                 id="path28426"
                 stroke-miterlimit="10"
                 d="m 0,0 c 0,0 1.749,-3.388 5.137,-2.122 1.824,0.856 2.0621847,1.36551273 3.1020064,0.2904267"
                 sodipodi:nodetypes="ccc" />
            </g>
            <g
               id="g28428"
               transform="translate(367.47,367.98)">
              <path
                 style="fill:none;stroke:#000000;stroke-width:0.875;stroke-linecap:round;stroke-miterlimit:10"
                 inkscape:connector-curvature="0"
                 id="path28430"
                 stroke-miterlimit="10"
                 d="M -1.1409331,-2.7120542 C -0.32555733,-1.018742 0.269,-2.239 2.093,-3.096 5.48,-4.361 7.23,-0.974 7.23,-0.974 l 0,2.962"
                 sodipodi:nodetypes="cccc" />
            </g>
            <g
               style="opacity:0.3;fill:#3f76a2;fill-opacity:1"
               id="g28432"
               clip-path="url(#clipPath593269)"
               transform="matrix(1,0,0,-1,0,707.79)">
              <g
                 id="g28434"
                 transform="translate(371.21,355.77)"
                 style="fill:#3f76a2;fill-opacity:1">
                <path
                   style="fill:#3f76a2;fill-opacity:1"
                   inkscape:connector-curvature="0"
                   id="path28436"
                   d="M 0,0 C 0,0 0.762,-3.75 3.675,-3.75 6.588,-3.75 7.538,-0.844 7.602,0 7.602,0 3.65,-3.955 0,0" />
              </g>
            </g>
            <g
               id="g28438"
               transform="matrix(1,0,0,-1,371.49,353.94856)">
              <path
                 style="fill:none;stroke:#050000;stroke-width:0.875;stroke-linecap:round;stroke-miterlimit:10"
                 inkscape:connector-curvature="0"
                 id="path28440"
                 stroke-miterlimit="10"
                 d="M 0,0 C 0,0 2.912,-4.14 7.052,0" />
            </g>
            <path
               style="fill:#acd0dd;fill-opacity:1;fill-rule:evenodd;stroke:#000000;stroke-width:0.66666247;stroke-linecap:butt;stroke-linejoin:miter;stroke-miterlimit:4;stroke-dasharray:none;stroke-opacity:1"
               d="m 393.79081,364.16796 c 1.69854,-2.20126 3.87246,1.22531 2.47016,2.29715 l -3.77012,2.98128 c -1.48609,1.61216 -2.21182,0.86619 -0.94561,-0.8676 z"
               id="path34370"
               inkscape:connector-curvature="0"
               sodipodi:nodetypes="ccccc" />
            <path
               sodipodi:nodetypes="ccccc"
               inkscape:connector-curvature="0"
               id="path34372"
               d="m 401.13104,360.69588 c 1.69854,-2.20126 3.87247,1.22531 2.47017,2.29715 l -3.77012,2.98128 c -1.4861,1.61216 -2.21183,0.8662 -0.94561,-0.8676 z"
               style="fill:#acd0dd;fill-opacity:1;fill-rule:evenodd;stroke:#000000;stroke-width:0.66666247;stroke-linecap:butt;stroke-linejoin:miter;stroke-miterlimit:4;stroke-dasharray:none;stroke-opacity:1" />
            <path
               sodipodi:nodetypes="ccccc"
               inkscape:connector-curvature="0"
               id="path34374"
               d="m 355.14157,363.79084 c -1.69854,-2.20126 -3.87246,1.22531 -2.47016,2.29715 l 3.77012,2.98128 c 1.48609,1.61216 2.21182,0.86619 0.94561,-0.8676 z"
               style="fill:#acd0dd;fill-opacity:1;fill-rule:evenodd;stroke:#000000;stroke-width:0.66666247;stroke-linecap:butt;stroke-linejoin:miter;stroke-miterlimit:4;stroke-dasharray:none;stroke-opacity:1" />
            <path
               style="fill:#acd0dd;fill-opacity:1;fill-rule:evenodd;stroke:#000000;stroke-width:0.66666247;stroke-linecap:butt;stroke-linejoin:miter;stroke-miterlimit:4;stroke-dasharray:none;stroke-opacity:1"
               d="m 348.17846,360.19305 c -1.69854,-2.20126 -3.87247,1.22531 -2.47017,2.29715 l 3.77012,2.98128 c 1.4861,1.61216 2.21183,0.8662 0.94561,-0.8676 z"
               id="path34376"
               inkscape:connector-curvature="0"
               sodipodi:nodetypes="ccccc" />
          </g>
        </g>
      </g>
    </g>
  </g>
</svg>
