<svg xmlns="http://www.w3.org/2000/svg" viewBox="0 0 68 68"><title>Ресурс 4</title><g id="Слой_2" data-name="Слой 2"><g id="Слой_1-2" data-name="Слой 1"><circle cx="34" cy="34" r="24" style="fill:#57a4ff;fill-opacity:0.1899999976158142"/><circle cx="34" cy="34" r="34" style="fill:#57a4ff;fill-opacity:0.1899999976158142"/><circle cx="33.5" cy="33.5" r="16.5" style="fill:#fff"/><path d="M16,42.4a10,10,0,0,1,.93,1.35,2.82,2.82,0,0,1,.49,1.88,1.65,1.65,0,0,1-.87,1.11,1.72,1.72,0,0,1-2-.17h0a1.58,1.58,0,0,1-.68,1.4,12.21,12.21,0,0,0-1.31,1.29l-.57-1a8.9,8.9,0,0,1,1.13-1.11c.65-.56.75-1,.45-1.5l-.24-.42L11,46.54l-.56-1Zm-1.93,2.4.28.5a1.08,1.08,0,0,0,1.54.51,1,1,0,0,0,.34-1.53,2.75,2.75,0,0,0-.35-.51Z" style="fill:#004fac"/><path d="M15.7,49.87a1.2,1.2,0,0,0,0,1.82,3.27,3.27,0,0,0,.94.71l-.47.66a3.85,3.85,0,0,1-1.22-.91,2.13,2.13,0,0,1,.21-3.25,2.24,2.24,0,0,1,3.28-.14c.92,1,.42,2.13-.38,2.88a3,3,0,0,1-.4.32Zm1.82.79c.4-.35.72-.93.27-1.41a1.1,1.1,0,0,0-1.5.08Z" style="fill:#004fac"/><path d="M19.35,52c.34-.5.6-.92.82-1.28l.83.56-.33.59h0a1.59,1.59,0,0,1,1.61.16c.85.58.95,1.79.14,3-.95,1.4-2.19,1.51-3,1a1.36,1.36,0,0,1-.63-1.14h0l-1.33,2-.94-.64Zm.22,1.69a1.46,1.46,0,0,0-.16.3.93.93,0,0,0,.32,1.12c.56.38,1.23,0,1.73-.7s.56-1.45,0-1.83a1,1,0,0,0-1.2.15,1.64,1.64,0,0,0-.21.24Z" style="fill:#004fac"/><path d="M24.25,56.17A1.2,1.2,0,0,0,25,57.82a3.39,3.39,0,0,0,1.15.23l-.14.8a3.93,3.93,0,0,1-1.49-.29,2.12,2.12,0,0,1-1.23-3A2.22,2.22,0,0,1,26.21,54c1.27.49,1.31,1.73.91,2.75a2.67,2.67,0,0,1-.22.47Zm2-.08c.19-.49.23-1.15-.39-1.39s-1.09.28-1.31.73Z" style="fill:#004fac"/><path d="M30.34,59.92v-.51h0a1.54,1.54,0,0,1-1.34.4,1.35,1.35,0,0,1-1.15-1.59c.19-1.17,1.3-1.57,2.81-1.33V56.8a.75.75,0,0,0-.73-.95,2.17,2.17,0,0,0-1.18.14l-.11-.77a3.06,3.06,0,0,1,1.62-.14,1.66,1.66,0,0,1,1.48,2.18L31.46,59a8.16,8.16,0,0,0-.11,1.1Zm.21-2.3c-.69-.11-1.48-.08-1.6.65a.61.61,0,0,0,.51.78.86.86,0,0,0,.91-.48.67.67,0,0,0,.07-.24Z" style="fill:#004fac"/><path d="M34.31,54.13l0,1.31,1.06,0,0,.84-1.07,0,0,2.17c0,.57.19.81.58.81a2,2,0,0,0,.42-.06l0,.87a2.75,2.75,0,0,1-.8.13,1.35,1.35,0,0,1-1-.34,1.78,1.78,0,0,1-.39-1.29l0-2.27-.64,0,0-.84.64,0,0-1Z" style="fill:#004fac"/><path d="M38.56,55l1.12,1.86c.27.44.52.88.76,1.32h0c-.08-.49-.13-1-.17-1.51l-.16-2.21.85-.3,1.2,1.79A15.27,15.27,0,0,1,43,57.23h0c-.1-.49-.18-1-.25-1.54l-.24-2.13,1.05-.37.24,4.87-1,.35-1.12-1.63c-.28-.41-.52-.8-.79-1.29h0A13.16,13.16,0,0,1,41.11,57l.11,2-1,.35-2.78-4Z" style="fill:#004fac"/><path d="M48.57,52.41a2.19,2.19,0,0,1-.39,3.27,2.15,2.15,0,0,1-3.13-.76,2.21,2.21,0,0,1,.42-3.28A2.13,2.13,0,0,1,48.57,52.41ZM46,54.24c.49.71,1.2,1.11,1.74.73s.4-1.17-.09-1.88-1.12-1.16-1.72-.74S45.56,53.62,46,54.24Z" style="fill:#004fac"/><path d="M48.84,50.93c-.4-.4-.75-.72-1.06-1l.69-.7.63.55,0,0a1.3,1.3,0,0,1,.17-1.49,1,1,0,0,1,.19-.17l.78.76a2,2,0,0,0-.24.2A1,1,0,0,0,50,50.38a2.05,2.05,0,0,0,.25.29l1.74,1.71-.8.81Z" style="fill:#004fac"/><path d="M50.36,43.31l4.56,3c.37.25.81.52,1.1.69l-.56.83-.6-.33v0a1.5,1.5,0,0,1-.1,1.56c-.58.88-1.81,1-3,.2s-1.57-2.11-1-3a1.31,1.31,0,0,1,1.12-.65h0l-2.14-1.42Zm2.7,3.15a2.34,2.34,0,0,0-.27-.15.93.93,0,0,0-1.15.3c-.38.57,0,1.25.72,1.72s1.46.52,1.82,0A.92.92,0,0,0,54,47.15a1.13,1.13,0,0,0-.26-.21Z" style="fill:#004fac"/><path d="M36,40.12a19.55,19.55,0,0,0,3.45-.59h0a14.37,14.37,0,0,0,2.75-1,7.43,7.43,0,0,0,3.62-3.3,3.56,3.56,0,0,0,.17-.41,4.46,4.46,0,0,0,.25-1.08c-.19-1.9-1.61-3.59-4-4.78A18.94,18.94,0,0,0,34,27.26,18.94,18.94,0,0,0,25.82,29c-2.43,1.19-3.85,2.88-4,4.78.19,1.91,1.61,3.6,4,4.79l.44.21v-.07a4.66,4.66,0,0,1,1.14-3.31l0,0c-1.26-.61-2.07-1.41-2.07-2s.81-1.42,2.07-2A15.71,15.71,0,0,1,34,29.94a15.71,15.71,0,0,1,6.62,1.32c1.26.62,2.07,1.42,2.07,2v.06a.94.94,0,0,1-.12.37.94.94,0,0,1,.12.44v.06c0,.61-.85,1.38-2.07,2a11.8,11.8,0,0,1-1.19.48,16.2,16.2,0,0,1-4.26.8v-1.9a.46.46,0,0,0-.29-.43.39.39,0,0,0-.18,0,.49.49,0,0,0-.34.14l-3.6,3.61,3.6,3.6a.49.49,0,0,0,.34.14.39.39,0,0,0,.18,0,.46.46,0,0,0,.29-.43v-2Z" style="fill:#57a4ff"/><path d="M34,26.39a19.09,19.09,0,0,1,8.18,1.68c2.62,1.29,4.06,3.14,4.06,5.23A4.29,4.29,0,0,1,46,34.81a3.56,3.56,0,0,1-.17.41,7.43,7.43,0,0,1-3.62,3.3,14.37,14.37,0,0,1-2.75,1h0a19.55,19.55,0,0,1-3.45.59l-.81.06v2a.46.46,0,0,1-.29.43.39.39,0,0,1-.18,0,.49.49,0,0,1-.34-.14l-3.7-3.71a.45.45,0,0,1,0-.66l3.7-3.71a.49.49,0,0,1,.34-.14.39.39,0,0,1,.18,0,.46.46,0,0,1,.29.43v1.9a16.2,16.2,0,0,0,4.26-.8,9.86,9.86,0,0,0,1.19-.49c1.22-.59,2-1.36,2.07-2V33.3c0-.62-.81-1.42-2.07-2A15.71,15.71,0,0,0,34,29.94a15.71,15.71,0,0,0-6.62,1.32c-1.26.62-2.07,1.42-2.07,2s.81,1.42,2.07,2l0,0a4.69,4.69,0,0,0-1.14,3.38l-.45-.21c-2.62-1.28-4.06-3.14-4.06-5.22s1.44-3.94,4.06-5.23A19.09,19.09,0,0,1,34,26.39m0-1.16A20.23,20.23,0,0,0,25.31,27a9.77,9.77,0,0,0-3.42,2.64,5.74,5.74,0,0,0,0,7.25,9.55,9.55,0,0,0,3.42,2.64l.49.23a1.1,1.1,0,0,0,.47.1,1.16,1.16,0,0,0,1.16-1.23,3.56,3.56,0,0,1,.86-2.56,1.17,1.17,0,0,0-.38-1.8h0a3.77,3.77,0,0,1-1.37-1,3.87,3.87,0,0,1,1.37-1A14.58,14.58,0,0,1,34,31.1a14.58,14.58,0,0,1,6.11,1.2,3.87,3.87,0,0,1,1.37,1,3.77,3.77,0,0,1-1.37,1,8.66,8.66,0,0,1-1.06.43,14.11,14.11,0,0,1-2.72.62v-.62a1.63,1.63,0,0,0-1-1.51,1.67,1.67,0,0,0-.62-.12,1.63,1.63,0,0,0-1.16.48l-3.7,3.7a1.64,1.64,0,0,0,0,2.32l3.7,3.7a1.63,1.63,0,0,0,1.16.48,1.67,1.67,0,0,0,.62-.12,1.63,1.63,0,0,0,1-1.51v-.89a20.09,20.09,0,0,0,3.4-.6,15.65,15.65,0,0,0,3-1.09,8.56,8.56,0,0,0,4.16-3.85,4.4,4.4,0,0,0,.21-.5,5.46,5.46,0,0,0,.34-1.91,5.82,5.82,0,0,0-1.29-3.63A9.77,9.77,0,0,0,42.69,27,20.23,20.23,0,0,0,34,25.23Z" style="fill:#004fac"/></g></g></svg>