<svg xmlns="http://www.w3.org/2000/svg" xmlns:xlink="http://www.w3.org/1999/xlink" viewBox="0 0 68 68"><defs><clipPath id="clip-path"><rect x="22.73" y="22.73" width="22.27" height="22.27" style="fill:none"/></clipPath></defs><title>Ресурс 3</title><g id="Слой_2" data-name="Слой 2"><g id="Слой_1-2" data-name="Слой 1"><circle cx="34" cy="34" r="24" style="fill:#57a4ff;fill-opacity:0.1899999976158142"/><circle cx="34" cy="34" r="34" style="fill:#57a4ff;fill-opacity:0.1899999976158142"/><circle cx="33.5" cy="33.5" r="16.5" style="fill:#fff"/><g style="clip-path:url(#clip-path)"><path d="M42.34,23.16A21.17,21.17,0,0,0,39.4,24l4.3,4.32a21.38,21.38,0,0,0,.9-2.95A2,2,0,0,0,42.34,23.16Z" style="fill:#57a4ff"/><path d="M33.89,38.77a22.9,22.9,0,0,0,2.88-1.87,3.75,3.75,0,0,1-2.17,6A3.77,3.77,0,0,0,33.89,38.77Z" style="fill:#57a4ff"/><path d="M29,33.83a3.77,3.77,0,0,0-4.21-.76A3.76,3.76,0,0,1,30.86,31,22.59,22.59,0,0,0,29,33.85Z" style="fill:#57a4ff"/><path d="M34.37,29.13a3,3,0,1,1,0,4.26,3,3,0,0,1,0-4.26Zm3.46.8a1.88,1.88,0,0,0-2.67,0,1.88,1.88,0,0,1,2.67,0Zm-3.22,1.26a2,2,0,0,0,.13.74,2,2,0,0,1-.13-.74Z" style="fill:#57a4ff"/><path d="M29.31,37.38l1.06,1.06L26,42.3l-2.88,2.26,2.35-2.8Z" style="fill:#57a4ff"/><path d="M32.24,40.3l-5,2.75,3.92-3.81Z" style="fill:#57a4ff"/><path d="M24.61,40.42l2.84-4.91,1.06,1.07-3.85,3.85Z" style="fill:#57a4ff"/><path d="M44.3,23.45A2.27,2.27,0,0,1,45,25.5a17.92,17.92,0,0,1-4.47,8.68A32.62,32.62,0,0,1,37.29,37a4.13,4.13,0,0,1-2.61,6.32.37.37,0,0,1-.42-.52,3.4,3.4,0,0,0-.47-3.53c-.29.15-.58.28-.84.39a.41.41,0,0,1-.41-.08l-4.33-4.34a.38.38,0,0,1-.09-.4,9,9,0,0,1,.39-.86,3.38,3.38,0,0,0-3.61-.54.38.38,0,0,1-.36,0,.34.34,0,0,1-.17-.31.22.22,0,0,1,0-.08,4.09,4.09,0,0,1,1.12-2.08,4.15,4.15,0,0,1,5.29-.47,33.66,33.66,0,0,1,2.78-3.18,17.92,17.92,0,0,1,8.68-4.47,2.24,2.24,0,0,1,2,.66Zm-9,17.93a3.83,3.83,0,0,1-.12,1,3.38,3.38,0,0,0,1.5-4.91l-.34.24-.16.11-.68.46-.13.08c-.18.12-.35.23-.53.33l-.2.12-.18.11A4.12,4.12,0,0,1,35.31,41.38ZM26,31.44a3.61,3.61,0,0,0-.7,1,4.19,4.19,0,0,1,3.55.79,1.74,1.74,0,0,1,.11-.18l.12-.2.32-.52.09-.14c.15-.23.3-.45.46-.67l.12-.18.24-.33a3.41,3.41,0,0,0-4.31.4ZM34.1,27.8a31.61,31.61,0,0,0-2.94,3.39c-.24.32-.46.64-.68.95s-.55.82-.79,1.22l-.38.67a8.38,8.38,0,0,0-.39.82l4,4c.25-.11.53-.24.82-.39a23.62,23.62,0,0,0,2.83-1.84h0A31.26,31.26,0,0,0,40,33.65a15.25,15.25,0,0,0,3.32-5.2l-4-4a15.25,15.25,0,0,0-5.2,3.32Zm8.32-4.28a20.85,20.85,0,0,0-2.34.67l3.48,3.48a23.2,23.2,0,0,0,.67-2.34,1.63,1.63,0,0,0-1.81-1.81Z" style="fill:#004fac"/><path d="M38.89,33.65a3.39,3.39,0,1,1,0-4.79A3.39,3.39,0,0,1,38.89,33.65Zm-4.26-4.26a2.64,2.64,0,1,0,1.86-.77A2.67,2.67,0,0,0,34.63,29.39Z" style="fill:#004fac"/><path d="M35,31.21a1.5,1.5,0,0,0,.1.59.4.4,0,0,1-.05.38.38.38,0,0,1-.36.13.36.36,0,0,1-.29-.24,2.28,2.28,0,0,1-.15-.81v-.08a.37.37,0,0,1,.39-.36.39.39,0,0,1,.36.39Z" style="fill:#004fac"/><path d="M38.09,30.19a.37.37,0,0,1-.53,0,1.5,1.5,0,0,0-2.13,0,.36.36,0,0,1-.37.1A.35.35,0,0,1,34.8,30a.36.36,0,0,1,.1-.37,2.26,2.26,0,0,1,3.19,0A.37.37,0,0,1,38.09,30.19Z" style="fill:#004fac"/><path d="M33.3,37.11a.39.39,0,0,1,0,.53.38.38,0,0,1-.53,0L30.11,35a.37.37,0,0,1,.53-.53Z" style="fill:#004fac"/><path d="M39.47,26.69l1.59,1.59a.37.37,0,0,1,.11.37.38.38,0,0,1-.64.17l-1.59-1.6a.37.37,0,1,1,.53-.53Z" style="fill:#004fac"/><path d="M29.3,37a.43.43,0,0,1,.28.11l1.06,1.06a.43.43,0,0,1,.11.28.35.35,0,0,1-.13.27l-4.4,3.87-2.88,2.26a.37.37,0,0,1-.52-.53l2.35-2.8h0L29,37.13A.35.35,0,0,1,29.3,37Zm-3.56,5h0l4.09-3.6-.49-.49Z" style="fill:#004fac"/><path d="M26.87,43.05a.36.36,0,0,1,.12-.27L30.91,39a.39.39,0,0,1,.53,0L32.5,40a.35.35,0,0,1,.11.32.38.38,0,0,1-.19.27l-5,2.75a.38.38,0,0,1-.37,0,.36.36,0,0,1-.19-.32Zm4.75-2.83-.45-.45-1.65,1.6Z" style="fill:#004fac"/><path d="M28.78,36.31a.37.37,0,0,1,0,.53L24.92,40.7a.36.36,0,0,1-.38.09l-.05,0a.36.36,0,0,1-.23-.22.36.36,0,0,1,0-.32l2.83-4.9a.37.37,0,0,1,.28-.19.4.4,0,0,1,.31.11Zm-2.49,2L28,36.58l-.45-.45Z" style="fill:#004fac"/><path d="M42.61,25.14a.36.36,0,0,1,0,.51.38.38,0,0,1-.52,0l-.79-.8a.37.37,0,0,1,0-.53.39.39,0,0,1,.53,0Z" style="fill:#004fac"/></g><path d="M9.65,39.16a2.91,2.91,0,0,0,0,1.44c.18.69.63,1,1.15.85s.67-.51.79-1.3c.15-1,.56-1.8,1.39-2a1.94,1.94,0,0,1,2.34,1.63,3,3,0,0,1,.07,1.41h-1a2.47,2.47,0,0,0,0-1.18c-.18-.68-.64-.87-1-.77s-.62.51-.76,1.38c-.18,1.12-.62,1.73-1.46,1.95-1,.27-2.06-.28-2.45-1.75a3.3,3.3,0,0,1-.05-1.61Z" style="fill:#004fac"/><path d="M16,43.17l-1.19.56.46,1-.77.35-.45-1-2,.93c-.52.24-.67.5-.5.86a1.8,1.8,0,0,0,.21.36l-.77.39a2.41,2.41,0,0,1-.44-.68,1.29,1.29,0,0,1-.09-1,1.8,1.8,0,0,1,1-.88l2.06-1-.27-.57.76-.36.27.57.94-.44Z" style="fill:#004fac"/><path d="M13.24,50l.37-.35v0A1.56,1.56,0,0,1,12.37,49a1.34,1.34,0,0,1,.32-1.93c1-.69,2-.18,2.92,1.06l.08,0a.76.76,0,0,0,.15-1.19,2.15,2.15,0,0,0-.92-.74l.48-.62a3.22,3.22,0,0,1,1.23,1.06,1.66,1.66,0,0,1-.52,2.58l-1.41,1a7.77,7.77,0,0,0-.86.7ZM15,48.57c-.41-.58-1-1.12-1.59-.69a.6.6,0,0,0-.19.91.83.83,0,0,0,1,.31.72.72,0,0,0,.23-.12Z" style="fill:#004fac"/><path d="M17.33,49.89c.4-.41.71-.76,1-1.07l.71.69-.55.63,0,0a1.3,1.3,0,0,1,1.49.16,1,1,0,0,1,.17.19l-.75.78-.21-.23A1,1,0,0,0,17.89,51a1.56,1.56,0,0,0-.29.25L15.9,53l-.81-.79Z" style="fill:#004fac"/><path d="M22.6,50.75l-.75,1.08.87.61-.49.68-.86-.61-1.25,1.78c-.33.47-.33.77,0,1a2,2,0,0,0,.37.2l-.48.72a2.23,2.23,0,0,1-.72-.37A1.27,1.27,0,0,1,18.7,55a1.76,1.76,0,0,1,.45-1.27l1.3-1.86-.52-.36.49-.69.51.36.6-.85Z" style="fill:#004fac"/><path d="M24.46,55c.17-.51.29-.91.41-1.31l.93.33-.16.64h0a1.57,1.57,0,0,1,1.54-.27c.76.27,1.26,1,.82,2.31l-.94,2.7L26,59l.89-2.59c.2-.57.17-1.11-.38-1.3a.88.88,0,0,0-1,.36,1.42,1.42,0,0,0-.18.35l-.91,2.64-1.08-.37Z" style="fill:#004fac"/><path d="M30.21,57.87a1.2,1.2,0,0,0,1.18,1.39,3,3,0,0,0,1.17-.08l.08.8a3.88,3.88,0,0,1-1.51.12,2.12,2.12,0,0,1-2-2.58c.15-1.36,1-2.41,2.38-2.27s1.72,1.33,1.6,2.42a2.84,2.84,0,0,1-.09.51Zm1.89-.59c.07-.53-.07-1.18-.73-1.25s-1,.56-1.08,1Z" style="fill:#004fac"/><path d="M34.77,55.52l.76,2c.18.48.35,1,.5,1.44h0c0-.5.06-1,.11-1.52l.24-2.2.89-.14.86,2c.21.51.41,1,.57,1.46h0c0-.5,0-1,0-1.56l.15-2.13,1.11-.17-.66,4.83-1,.16-.81-1.81A12.62,12.62,0,0,1,37,56.48h0c0,.58,0,1.05-.1,1.52l-.27,2-1,.16-2-4.42Z" style="fill:#004fac"/><path d="M45.66,51.75c.14.3.33.66.64,1.22l1.31,2.3a2.61,2.61,0,0,1,.47,2.12,2.41,2.41,0,0,1-1.19,1.31,3,3,0,0,1-1.44.44l-.22-.87a2.55,2.55,0,0,0,1.22-.33,1.16,1.16,0,0,0,.37-1.79l-.19-.34h0A1.39,1.39,0,0,1,45.87,57c-.95.54-2.06,0-2.7-1.09-.78-1.36-.42-2.59.47-3.1a1.3,1.3,0,0,1,1.39,0h0l-.25-.53Zm-.13,2.15a1,1,0,0,0-.19-.26.87.87,0,0,0-1.07-.19c-.52.3-.59,1-.13,1.84s1,1.08,1.6.76a.85.85,0,0,0,.4-1A1.5,1.5,0,0,0,46,54.7Z" style="fill:#004fac"/><path d="M51.41,52.93,51,52.6l0,0a1.54,1.54,0,0,1-.52,1.3,1.34,1.34,0,0,1-2-.09c-.8-.88-.42-2,.71-3l-.07-.07a.75.75,0,0,0-1.19,0,2.07,2.07,0,0,0-.63,1l-.67-.4a3.14,3.14,0,0,1,.9-1.36,1.67,1.67,0,0,1,2.63.21l1.18,1.28a7.18,7.18,0,0,0,.8.78Zm-1.67-1.6c-.53.47-1,1.11-.49,1.66a.61.61,0,0,0,.92.08.85.85,0,0,0,.2-1,1,1,0,0,0-.15-.2Z" style="fill:#004fac"/><path d="M50.94,48.89c-.46-.28-.83-.48-1.19-.68l.51-.83.58.29v0a1.51,1.51,0,0,1,.06-1.52,1.25,1.25,0,0,1,1.32-.62h0a1.87,1.87,0,0,1-.2-.76,1.5,1.5,0,0,1,.24-.86c.4-.65,1.22-1,2.41-.22l2.42,1.48-.58,1L54.26,44.7c-.61-.37-1.13-.44-1.4,0a.81.81,0,0,0,.12,1,1.5,1.5,0,0,0,.3.24l2.44,1.49-.58,1L52.76,46.9c-.5-.31-1-.38-1.27.06a.85.85,0,0,0,.14,1,1.48,1.48,0,0,0,.3.25l2.41,1.47-.58.95Z" style="fill:#004fac"/><path d="M56.11,41.55a1.2,1.2,0,0,0,1.55-1,2.86,2.86,0,0,0,.1-1.16l.81,0A4,4,0,0,1,58.45,41a2.13,2.13,0,0,1-2.86,1.55,2.23,2.23,0,0,1-1.87-2.7c.35-1.31,1.59-1.49,2.64-1.21a2.62,2.62,0,0,1,.49.17Zm-.3-2c-.51-.14-1.17-.1-1.34.54s.4,1.05.87,1.22Z" style="fill:#004fac"/></g></g></svg>